<?xml version="1.0" encoding="UTF-8"?>
<svg xmlns="http://www.w3.org/2000/svg" version="1.1" viewBox="0 0 1000 1000">
  <defs>
    <style>
      .cls-1 {
        fill: #003051;
      }

      .cls-2 {
        fill: #0071a4;
      }
    </style>
  </defs>
  <!-- Generator: Adobe Illustrator 28.7.1, SVG Export Plug-In . SVG Version: 1.2.0 Build 142)  -->
  <g>
    <g id="Capa_1">
      <g>
        <path class="cls-1" d="M421.54,706.08c-3.1,7.05-6.11,13.91-8.95,20.39-13.02,29.75-42.4,48.93-74.87,48.93h-141.59c-29.81,0-57.25-16.22-71.62-42.34l-55.2-100.33c-14.15-25.72-13.42-57.05,1.91-82.09l177.31-289.57c14.93-24.39,41.53-39.2,70.13-39.05l136.5.7c27.42.14,52.94,14.02,67.96,36.95l10.02,15.29c32.55,49.69,105.55,49.17,137.39-.98l9.45-14.88c15.11-23.81,41.43-38.14,69.63-37.93l46.03.35c63.21.48,101.98,69.46,69.52,123.71l-72.04,120.41c-32.58,54.46,6.62,123.65,70.08,123.71h0c45.2.04,81.78,36.75,81.67,81.95l-.06,23.28c-.11,44.78-36.1,83.22-80.88,83.62h-236.33c-31.48.27-60.32-17.55-74.15-45.83l-141.01-288.36c-11.2-22.91-43.15-24.76-56.92-3.3l-70.02,109.12c-11.55,18.01,1.4,41.66,22.79,41.62l38.3-.07c59.1-.11,98.76,60.61,74.95,114.7Z"/>
        <circle class="cls-2" cx="601.93" cy="499.69" r="58.54"/>
      </g>
    </g>
  </g>
</svg>